<svg xmlns="http://www.w3.org/2000/svg" viewBox="0 0 456.14 307">
  <defs>
    <style>
      .cls-3{fill:#293747}.cls-8{fill:#f86c97}.cls-9{fill:#f0cd00}.cls-10{fill:#a7f192}.cls-11{fill:#f8afee}
    </style>
  </defs>
  <g id="Layer_2" data-name="Layer 2">
    <g id="Layer_1-2" data-name="Layer 1">
      <rect width="453.14" height="304" x=".64" y="2" fill="#3b4d66" rx="12" ry="12"/>
      <path fill="#324154" d="M445.18 1.24A11.88 11.88 0 0 1 445.8 5v280a12 12 0 0 1-12 12H4.66a11.94 11.94 0 0 1-2.38-.24A12 12 0 0 0 13.67 305H442.8a12 12 0 0 0 12-12V13a12 12 0 0 0-9.62-11.76z"/>
      <path d="M2.64 34.5h451v1h-451z" class="cls-3"/>
      <path fill="#463e3b" d="M442.64 307H13.5A13.52 13.52 0 0 1 0 293.5v-280A13.52 13.52 0 0 1 13.5 0h429.14a13.52 13.52 0 0 1 13.5 13.5v280a13.52 13.52 0 0 1-13.5 13.5zM13.5 3A10.51 10.51 0 0 0 3 13.5v280A10.51 10.51 0 0 0 13.5 304h429.14a10.51 10.51 0 0 0 10.5-10.5v-280A10.51 10.51 0 0 0 442.64 3z"/>
      <rect width="393" height="9" x="44.64" y="15" class="cls-3" rx="4.5" ry="4.5"/>
      <circle cx="18.29" cy="18.17" r="2.66" fill="#b63f34"/>
      <circle cx="25.46" cy="18.17" r="2.66" fill="#deb459"/>
      <circle cx="32.64" cy="18.17" r="2.66" fill="#25c73a"/>
      <path d="M137.14 88.33H55.55c-.83 0-1.5-.12-1.5-1.5s.67-1.5 1.5-1.5h81.58c.83 0 1.5.12 1.5 1.5.01 1.38-.63 1.5-1.49 1.5z" class="cls-8"/>
      <path d="M111.6 94.67H55.09c-.57 0-1-.12-1-1.5s.47-1.5 1-1.5h56.51c.57 0 1 .12 1 1.5.04 1.38-.43 1.5-1 1.5z" class="cls-9"/>
      <path d="M114.54 82h-59.4c-.6 0-1.09-.12-1.09-1.5s.49-1.5 1.09-1.5h59.4c.6 0 1.09.12 1.09 1.5.01 1.38-.48 1.5-1.09 1.5zM179.54 82h-59.4c-.6 0-1.09-.12-1.09-1.5s.49-1.5 1.09-1.5h59.4c.6 0 1.09.12 1.09 1.5.01 1.38-.48 1.5-1.09 1.5z" class="cls-10"/>
      <path d="M114.54 101h-59.4c-.6 0-1.09-.12-1.09-1.5s.49-1.5 1.09-1.5h59.4c.6 0 1.09.12 1.09 1.5.01 1.38-.48 1.5-1.09 1.5zM179.54 101h-59.4c-.6 0-1.09-.12-1.09-1.5s.49-1.5 1.09-1.5h59.4c.6 0 1.09.12 1.09 1.5.01 1.38-.48 1.5-1.09 1.5z" class="cls-11"/>
      <path d="M137.14 169H55.55c-.83 0-1.5-.12-1.5-1.5s.67-1.5 1.5-1.5h81.58c.83 0 1.5.12 1.5 1.5.01 1.38-.63 1.5-1.49 1.5z" class="cls-8"/>
      <path d="M111.6 175.33H55.09c-.57 0-1-.12-1-1.5s.47-1.5 1-1.5h56.51c.57 0 1 .12 1 1.5.04 1.38-.43 1.5-1 1.5z" class="cls-9"/>
      <path d="M114.54 162.67h-59.4c-.6 0-1.09-.12-1.09-1.5s.49-1.5 1.09-1.5h59.4c.6 0 1.09.12 1.09 1.5.01 1.38-.48 1.5-1.09 1.5zM179.54 162.67h-59.4c-.6 0-1.09-.12-1.09-1.5s.49-1.5 1.09-1.5h59.4c.6 0 1.09.12 1.09 1.5.01 1.38-.48 1.5-1.09 1.5z" class="cls-10"/>
      <path d="M114.54 181.67h-59.4c-.6 0-1.09-.12-1.09-1.5s.49-1.5 1.09-1.5h59.4c.6 0 1.09.12 1.09 1.5.01 1.38-.48 1.5-1.09 1.5zM179.54 181.67h-59.4c-.6 0-1.09-.12-1.09-1.5s.49-1.5 1.09-1.5h59.4c.6 0 1.09.12 1.09 1.5.01 1.38-.48 1.5-1.09 1.5z" class="cls-11"/>
      <path d="M137.14 209.33H55.55c-.83 0-1.5-.12-1.5-1.5s.67-1.5 1.5-1.5h81.58c.83 0 1.5.12 1.5 1.5.01 1.38-.63 1.5-1.49 1.5z" class="cls-8"/>
      <path d="M111.6 215.67H55.09c-.57 0-1-.12-1-1.5s.47-1.5 1-1.5h56.51c.57 0 1 .12 1 1.5.04 1.38-.43 1.5-1 1.5z" class="cls-9"/>
      <path d="M114.54 203h-59.4c-.6 0-1.09-.12-1.09-1.5s.49-1.5 1.09-1.5h59.4c.6 0 1.09.12 1.09 1.5.01 1.38-.48 1.5-1.09 1.5zM179.54 203h-59.4c-.6 0-1.09-.12-1.09-1.5s.49-1.5 1.09-1.5h59.4c.6 0 1.09.12 1.09 1.5.01 1.38-.48 1.5-1.09 1.5z" class="cls-10"/>
      <path d="M114.54 222h-59.4c-.6 0-1.09-.12-1.09-1.5s.49-1.5 1.09-1.5h59.4c.6 0 1.09.12 1.09 1.5.01 1.38-.48 1.5-1.09 1.5zM179.54 222h-59.4c-.6 0-1.09-.12-1.09-1.5s.49-1.5 1.09-1.5h59.4c.6 0 1.09.12 1.09 1.5.01 1.38-.48 1.5-1.09 1.5z" class="cls-11"/>
      <path d="M137.14 128.67H55.55c-.83 0-1.5-.12-1.5-1.5s.67-1.5 1.5-1.5h81.58c.83 0 1.5.12 1.5 1.5.01 1.38-.63 1.5-1.49 1.5z" class="cls-8"/>
      <path d="M111.6 135H55.09c-.57 0-1-.12-1-1.5s.47-1.5 1-1.5h56.51c.57 0 1 .12 1 1.5.04 1.38-.43 1.5-1 1.5z" class="cls-9"/>
      <path d="M114.54 122.33h-59.4c-.6 0-1.09-.12-1.09-1.5s.49-1.5 1.09-1.5h59.4c.6 0 1.09.12 1.09 1.5.01 1.38-.48 1.5-1.09 1.5zM179.54 122.33h-59.4c-.6 0-1.09-.12-1.09-1.5s.49-1.5 1.09-1.5h59.4c.6 0 1.09.12 1.09 1.5.01 1.38-.48 1.5-1.09 1.5z" class="cls-10"/>
      <path d="M114.54 141.33h-59.4c-.6 0-1.09-.12-1.09-1.5s.49-1.5 1.09-1.5h59.4c.6 0 1.09.12 1.09 1.5.01 1.38-.48 1.5-1.09 1.5zM179.54 141.33h-59.4c-.6 0-1.09-.12-1.09-1.5s.49-1.5 1.09-1.5h59.4c.6 0 1.09.12 1.09 1.5.01 1.38-.48 1.5-1.09 1.5z" class="cls-11"/>
    </g>
  </g>
</svg>
